<svg height="760pt" preserveAspectRatio="xMidYMid meet" viewBox="0 0 977 760" width="977pt" xmlns="http://www.w3.org/2000/svg"><g transform="matrix(.1 0 0 -.1 0 760)"><path d="m5435 6812c-27-10-158-78-290-151-303-168-797-441-1360-751-143-79-343-189-445-245-102-57-257-142-345-190s-168-94-177-103c-16-14-18-43-18-344v-328h-152-152l-199 61c-109 33-201 59-203 56-3-3-8-29-11-60l-6-54-216-6c-290-8-424-36-626-133-371-177-643-524-731-934-25-118-30-324-10-460 72-493 423-909 902-1069 170-57 383-80 579-62 602 56 1068 471 1202 1071 15 66 17 189 22 1060l6 985 100 56c55 31 215 118 355 194s356 193 480 260c1319 717 1389 755 1401 755 5 0 89-43 187-96 97-53 265-144 372-201 107-58 263-143 345-188 83-45 258-141 390-212 299-163 571-310 1408-765 119-65 127-71 115-89-57-83-204-278-210-278-7-1-286 149-1053 567-126 68-333 181-460 250-126 68-327 177-445 242-118 64-307 167-420 228-119 65-217 112-233 112-15 0-82-31-150-68-67-38-167-93-222-122s-188-101-295-160-421-230-698-380c-322-175-511-283-527-302-13-16-29-46-35-68-7-26-9-471-8-1372l3-1333 23-37c13-20 40-47 60-60l37-23 823-3 822-3v-664-665h525 525v210 210h-325-325v105 105h325 325v190 190h-325-325v715c0 588 2 715 13 715 23 0 120 43 191 85 80 47 199 167 248 251 175 300 135 653-102 908-63 68-139 122-234 166-367 171-811 16-989-345-62-124-72-173-72-340 0-164 10-215 66-329 89-182 232-307 452-395l27-11-2-347-3-348h-620-620l-38 24c-21 12-46 40-57 62-20 37-20 63-20 1069 0 1094-1 1070 46 1112 11 9 141 83 289 163 559 304 766 416 975 530 118 65 220 118 225 118 6 0 105-52 220-115 116-63 318-173 450-245 448-243 829-450 1229-668 220-119 456-247 525-284l126-66h85c74 0 93 4 142 29 31 16 70 43 86 60 55 60 345 459 365 505 30 65 29 178-2 247-41 94-87 127-481 345-201 111-576 319-835 462-258 143-549 303-645 357-96 53-281 156-410 227-129 72-347 192-485 269-307 170-363 187-480 146zm-3355-2501c169-42 367-161 479-287 103-116 187-270 227-420 27-98 27-379 0-478-41-152-125-308-230-423-61-67-190-165-275-207-388-195-864-110-1157 207-116 125-193 271-236 444-32 131-30 322 6 457 98 374 392 650 769 722 102 19 308 12 417-15zm3595-76c150-45 250-182 250-345 0-63-5-85-31-140-37-78-99-141-174-178-47-23-67-27-145-27-76 0-99 4-146 26-76 36-129 86-170 161-32 60-34 68-34 163 0 90 3 105 27 152 50 95 118 154 216 189 50 18 148 17 207-1z"/><path d="m1700 4035c-406-86-642-504-506-896 36-103 81-174 166-259 83-84 167-133 290-171 111-35 283-33 395 4 211 70 376 233 446 442 21 60 24 89 24 210 0 120-3 150-23 210-57 173-187 323-345 399-148 72-299 92-447 61zm252-156c203-42 370-210 413-416 18-86 18-130 0-218-22-105-68-190-144-266-107-107-231-159-381-159-285 0-515 214-537 499-7 94 21 215 69 299 66 118 199 220 334 257 61 17 176 19 246 4z"/><path d="m1705 3773c-122-44-205-119-258-231-26-56-32-82-35-158-5-113 12-179 71-265 77-116 188-178 334-187 265-15 465 189 451 462-4 73-10 96-41 160-45 90-113 155-207 200-57 27-78 31-165 33-77 3-112-1-150-14zm228-159c150-51 227-239 155-379-94-182-323-211-458-58-152 173-27 449 206 452 28 1 71-6 97-15z"/></g></svg>